
<svg width="1440" height="900" viewBox="0 0 1440 900" xmlns="http://www.w3.org/2000/svg">
  <defs>
    <!-- Gradient definitions -->
    <linearGradient id="techGradient" x1="0%" y1="0%" x2="100%" y2="100%">
      <stop offset="0%" stop-color="#4361ee" stop-opacity="0.05"/>
      <stop offset="50%" stop-color="#7209b7" stop-opacity="0.03"/>
      <stop offset="100%" stop-color="#4cc9f0" stop-opacity="0.05"/>
    </linearGradient>
    
    <!-- Tech icons as patterns -->
    <pattern id="reactPattern" x="0" y="0" width="200" height="200" patternUnits="userSpaceOnUse">
      <path d="M100 70.7c-16.8 0-30.4 3.4-30.4 10s13.6 10 30.4 10 30.4-3.4 30.4-10-13.6-10-30.4-10zm0 17.5c-10.7 0-20-1.9-25-4.7 5-2.8 14.3-4.7 25-4.7s20 1.9 25 4.7c-5 2.8-14.3 4.7-25 4.7z" opacity="0.1" fill="#4361ee"/>
      <path d="M139.3 80.7c-8.4-14.5-19.4-22.6-24.4-18.1-5 4.5-2.2 19.8 6.2 34.3s19.4 22.6 24.4 18.1c5-4.5 2.2-19.8-6.2-34.3zm-15.1 13.8c-5.3-9.2-7.5-17.9-5.2-21 2.4-3.1 10.4.7 18 10 7.5 9.2 11.5 19.3 9.1 22.3-2.3 3-9.5-.1-16.9-9.3" opacity="0.1" fill="#4361ee"/>
      <path d="M60.7 80.7c-8.4 14.5-11.2 29.8-6.2 34.3 5 4.5 16-3.6 24.4-18.1s11.2-29.8 6.2-34.3c-5-4.5-16 3.6-24.4 18.1zm15.1 13.8c-5.3 9.2-12.5 12.3-14.9 9.3-2.4-3 1.6-13.1 9.1-22.3 7.6-9.3 15.6-13 18-10 2.3 3.1.1 11.8-5.2 21" opacity="0.1" fill="#4361ee"/>
      <circle cx="100" cy="80.7" r="7" opacity="0.1" fill="#4361ee"/>
    </pattern>
    
    <pattern id="angularPattern" x="100" y="100" width="200" height="200" patternUnits="userSpaceOnUse">
      <path d="M100 50l40 14.3-7.1 55.5-32.9 18-32.9-18L60 64.3z" opacity="0.1" fill="#7209b7"/>
      <path d="M100 50v87.8l32.9-18 7.1-55.5z" opacity="0.08" fill="#7209b7"/>
      <path d="M100 50L60 64.3l7.1 55.5 32.9 18z" opacity="0.12" fill="#7209b7"/>
      <path d="M100 57.9l-24.7 52.9h9.2l5-12.4h21.1l5 12.4h9.2L100 57.9zm6.9 32.9H93.1L100 75.2l6.9 15.6z" opacity="0.1" fill="#7209b7"/>
    </pattern>
    
    <pattern id="dotnetPattern" x="300" y="200" width="220" height="220" patternUnits="userSpaceOnUse">
      <path d="M89.1 122h-6.9v-39h17.3c3.3 0 6.2.6 8.7 1.8 2.4 1.2 4.3 2.9 5.6 5.1 1.3 2.2 2 4.7 2 7.5 0 2.9-.7 5.4-2 7.6-1.3 2.2-3.3 3.9-5.7 5.2-2.5 1.2-5.3 1.8-8.6 1.8h-10.4V122zm0-33.4v16h10.4c2.3 0 4.1-.4 5.4-1.1 1.3-.7 2.2-1.7 2.8-3 .6-1.3.9-2.7.9-4.3s-.3-3-.9-4.2c-.6-1.3-1.5-2.3-2.8-3-1.3-.7-3.1-1.1-5.4-1.1H89.1v.7z" opacity="0.1" fill="#4cc9f0"/>
      <path d="M137.4 122h-6.1l-14.5-39h7.5l10.5 30.4L145.3 83h7.5l-15.4 39z" opacity="0.1" fill="#4cc9f0"/>
      <path d="M100 60c-22.1 0-40 17.9-40 40s17.9 40 40 40 40-17.9 40-40-17.9-40-40-40zm0 73.3c-18.3 0-33.3-15-33.3-33.3s15-33.3 33.3-33.3 33.3 15 33.3 33.3-15 33.3-33.3 33.3z" opacity="0.1" fill="#4cc9f0"/>
    </pattern>
    
    <pattern id="sqlPattern" x="50" y="300" width="200" height="200" patternUnits="userSpaceOnUse">
      <path d="M100 60c-22.1 0-40 8.9-40 20v40c0 11.1 17.9 20 40 20s40-8.9 40-20V80c0-11.1-17.9-20-40-20zm0 73.3c-18.4 0-33.3-7.5-33.3-16.7V105c7 6.2 19.5 10 33.3 10s26.3-3.8 33.3-10v11.7c0 9.2-14.9 16.6-33.3 16.6zm0-26.6c-18.4 0-33.3-7.5-33.3-16.7V85c7 6.2 19.5 10 33.3 10s26.3-3.8 33.3-10v15c0 9.2-14.9 16.7-33.3 16.7zm0-33.4c-18.4 0-33.3-7.5-33.3-16.7S81.6 66.7 100 66.7s33.3 7.5 33.3 16.7-14.9 16.6-33.3 16.6z" opacity="0.1" fill="#7209b7"/>
      <path d="M136.7 97l-7.1-2.4c-1.3-.4-2.2-1.1-2.2-2.5 0-2.6 2.9-2.8 4.6-2.8 2.3 0 4.9.7 6.4 2.7l4.3-4.4c-2.5-2.5-5.7-3.7-9.6-3.7-5.4 0-11.1 2.5-11.1 9 0 4.3 2.7 7 6.8 8.2l7.1 2.1c1.5.5 2.7 1.4 2.7 3.1 0 2.8-3.9 3.3-5.9 3.3-2.7 0-5.6-1-7.5-3.1l-4.6 4.7c3.2 3.2 7.1 4.6 11.5 4.6 6 0 12.7-2.5 12.7-9.8 0-4.4-3-6.8-8.1-8.2" opacity="0.1" fill="#7209b7"/>
      <path d="M104.3 85H97v30h7.3V85z" opacity="0.1" fill="#7209b7"/>
      <path d="M76.9 115h7.3V96.8h9.5V91h-9.5v-6h11.2v-5.8H76.9V115z" opacity="0.1" fill="#7209b7"/>
    </pattern>
    
    <pattern id="typeScriptPattern" x="250" y="50" width="180" height="180" patternUnits="userSpaceOnUse">
      <path d="M70 60h120v80H70z" opacity="0.1" fill="#4361ee"/>
      <path d="M110.7 108.3v7.5h-23.4v-7.5h23.4zm19.8-33.8v7.2h-19.4v31.8h-8V81.7H83.7v-7.2h46.8zm1 13.7v7.2h10.5c2.2 0 4.8.2 6.1 1 1.4.8 2.1 2 2.1 3.9 0 1.9-.7 3.3-2.1 4.2-1.4.9-3.4 1.2-5.9 1.2h-6.9v8h-8v-25.5h18.5c3.3 0 5.7.7 7.3 2.1 1.6 1.4 2.4 3.4 2.4 6 0 1.6-.4 3-1.2 4.2-.8 1.1-1.9 2-3.4 2.5 1.5.4 2.6 1.2 3.2 2.4s1 2.6 1 4.2v2.1c0 .7 0 1.5.1 2.2.1.8.2 1.3.5 1.7v.3h-8.2c-.3-.9-.5-1.8-.5-2.8v-2.5c0-1.7-.4-2.9-1.1-3.6-.7-.7-2-1-3.7-1h-10.8v-.6z" opacity="0.1" fill="#4361ee"/>
    </pattern>
    
    <pattern id="tailwindPattern" x="400" y="250" width="210" height="210" patternUnits="userSpaceOnUse">
      <path d="M64.5 102.5c2.8-11.3 10.5-15 22.9-11.3-1.8-15 5.5-21.1 22-18.2 15 2.6 20.3 10.5 16 23.7 11-3.3 20.3 0 28 9.8-28-9.2-40.8 0-38.5 27.7-5.6-11.3-12.7-16-21.2-14.2-8.5 1.7-12.7 7.7-12.7 18.1-12.7-14.2-19.3-24-16.5-35.6z" opacity="0.1" fill="#4cc9f0"/>
    </pattern>
  </defs>
  
  <!-- Main background -->
  <rect width="100%" height="100%" fill="url(#techGradient)"/>
  
  <!-- Tech patterns -->
  <rect width="100%" height="100%" fill="url(#reactPattern)"/>
  <rect width="100%" height="100%" fill="url(#angularPattern)"/>
  <rect width="100%" height="100%" fill="url(#dotnetPattern)"/>
  <rect width="100%" height="100%" fill="url(#sqlPattern)"/>
  <rect width="100%" height="100%" fill="url(#typeScriptPattern)"/>
  <rect width="100%" height="100%" fill="url(#tailwindPattern)"/>
  
  <!-- Overlay gradient for better text readability -->
  <rect width="100%" height="100%" fill="url(#techGradient)" opacity="0.3"/>
</svg>
